<svg width="24" height="24" viewBox="0 0 24 24" fill="none" xmlns="http://www.w3.org/2000/svg">
<mask id="mask0_1759_3047" style="mask-type:alpha" maskUnits="userSpaceOnUse" x="0" y="0" width="24" height="24">
<rect width="24" height="24" fill="#D9D9D9"/>
</mask>
<g mask="url(#mask0_1759_3047)">
<path d="M18 6C17.45 6 16.979 5.804 16.587 5.412C16.1957 5.02067 16 4.55 16 4C16 3.45 16.1957 2.979 16.587 2.587C16.979 2.19567 17.45 2 18 2C18.55 2 19.021 2.19567 19.413 2.587C19.8043 2.979 20 3.45 20 4C20 4.55 19.8043 5.02067 19.413 5.412C19.021 5.804 18.55 6 18 6ZM17 22V14C17 13.3333 16.8293 12.7333 16.488 12.2C16.146 11.6667 15.7083 11.25 15.175 10.95L16.05 8.375C16.1833 7.95833 16.4293 7.625 16.788 7.375C17.146 7.125 17.55 7 18 7C18.45 7 18.854 7.125 19.212 7.375C19.5707 7.625 19.8167 7.95833 19.95 8.375L22.5 16H20V22H17ZM12.5 11.5C12.0833 11.5 11.7293 11.354 11.438 11.062C11.146 10.7707 11 10.4167 11 10C11 9.58333 11.146 9.22933 11.438 8.938C11.7293 8.646 12.0833 8.5 12.5 8.5C12.9167 8.5 13.2707 8.646 13.562 8.938C13.854 9.22933 14 9.58333 14 10C14 10.4167 13.854 10.7707 13.562 11.062C13.2707 11.354 12.9167 11.5 12.5 11.5ZM5.5 6C4.95 6 4.47933 5.804 4.088 5.412C3.696 5.02067 3.5 4.55 3.5 4C3.5 3.45 3.696 2.979 4.088 2.587C4.47933 2.19567 4.95 2 5.5 2C6.05 2 6.52067 2.19567 6.912 2.587C7.304 2.979 7.5 3.45 7.5 4C7.5 4.55 7.304 5.02067 6.912 5.412C6.52067 5.804 6.05 6 5.5 6ZM3.5 22V15H2V9C2 8.45 2.196 7.979 2.588 7.587C2.97933 7.19567 3.45 7 4 7H7C7.55 7 8.02067 7.19567 8.412 7.587C8.804 7.979 9 8.45 9 9V15H7.5V22H3.5ZM11 22V18H10V14C10 13.5833 10.146 13.2293 10.438 12.938C10.7293 12.646 11.0833 12.5 11.5 12.5H13.5C13.9167 12.5 14.2707 12.646 14.562 12.938C14.854 13.2293 15 13.5833 15 14V18H14V22H11Z" fill="#76BC21"/>
</g>
</svg>
