<svg width="24" height="24" viewBox="0 0 24 24" fill="none" xmlns="http://www.w3.org/2000/svg">
<mask id="mask0_1759_1515" style="mask-type:alpha" maskUnits="userSpaceOnUse" x="0" y="0" width="24" height="24">
<rect width="24" height="24" fill="#D9D9D9"/>
</mask>
<g mask="url(#mask0_1759_1515)">
<path d="M12 18C11.3667 18 10.7543 17.9127 10.163 17.738C9.571 17.5627 9.025 17.3083 8.525 16.975C7.79167 16.925 7.04167 16.7667 6.275 16.5C5.50833 16.2333 4.80833 15.7917 4.175 15.175C3.54167 14.5583 3.02067 13.75 2.612 12.75C2.204 11.75 2 10.5 2 9V8.5C2 7.8 2.24167 7.20833 2.725 6.725C3.20833 6.24167 3.8 6 4.5 6C5.15 6 5.71267 6.225 6.188 6.675C6.66267 7.125 6.925 7.66667 6.975 8.3C7.44167 8.16667 7.85833 8 8.225 7.8C8.59167 7.6 8.96667 7.40833 9.35 7.225C9.73333 7.025 10.1333 6.85433 10.55 6.713C10.9667 6.571 11.45 6.5 12 6.5C12.5667 6.5 13.0543 6.571 13.463 6.713C13.871 6.85433 14.2667 7.025 14.65 7.225C15.0167 7.40833 15.3873 7.6 15.762 7.8C16.1373 8 16.5583 8.16667 17.025 8.3C17.075 7.65 17.3373 7.104 17.812 6.662C18.2873 6.22067 18.85 6 19.5 6C20.2 6 20.7917 6.24167 21.275 6.725C21.7583 7.20833 22 7.8 22 8.5V9C22 10.5 21.796 11.75 21.388 12.75C20.9793 13.75 20.4583 14.5583 19.825 15.175C19.1917 15.7917 18.4917 16.2333 17.725 16.5C16.9583 16.7667 16.2083 16.925 15.475 16.975C14.975 17.3083 14.4293 17.5627 13.838 17.738C13.246 17.9127 12.6333 18 12 18ZM6.5 14.975C6.18333 14.475 5.93767 13.929 5.763 13.337C5.58767 12.7457 5.5 12.1333 5.5 11.5V8.5C5.5 8.21667 5.40433 7.979 5.213 7.787C5.021 7.59567 4.78333 7.5 4.5 7.5C4.21667 7.5 3.97933 7.59567 3.788 7.787C3.596 7.979 3.5 8.21667 3.5 8.5V9C3.5 10.8333 3.80833 12.2 4.425 13.1C5.04167 14 5.73333 14.625 6.5 14.975ZM9 11.25C9.36667 11.15 9.68333 11.029 9.95 10.887C10.2167 10.7457 10.4667 10.6083 10.7 10.475C10.9333 10.3417 11.146 10.229 11.338 10.137C11.5293 10.0457 11.75 10 12 10C12.25 10 12.471 10.0457 12.663 10.137C12.8543 10.229 13.0667 10.3417 13.3 10.475C13.5333 10.6083 13.7793 10.7457 14.038 10.887C14.296 11.029 14.6167 11.15 15 11.25V10.2C14.75 10.1167 14.5333 10.025 14.35 9.925L13.8 9.625C13.5333 9.45833 13.2627 9.31267 12.988 9.188C12.7127 9.06267 12.3833 9 12 9C11.6167 9 11.2877 9.06267 11.013 9.188C10.7377 9.31267 10.4583 9.45833 10.175 9.625L9.625 9.925C9.44167 10.025 9.23333 10.1167 9 10.2V11.25ZM17.5 14.975C18.2667 14.625 18.9583 14 19.575 13.1C20.1917 12.2 20.5 10.8333 20.5 9V8.5C20.5 8.21667 20.404 7.979 20.212 7.787C20.0207 7.59567 19.7833 7.5 19.5 7.5C19.2167 7.5 18.9793 7.59567 18.788 7.787C18.596 7.979 18.5 8.21667 18.5 8.5V11.5C18.5 12.1333 18.4167 12.7457 18.25 13.337C18.0833 13.929 17.8333 14.475 17.5 14.975Z" fill="#76BC21"/>
</g>
</svg>
