<svg width="24" height="24" viewBox="0 0 24 24" fill="none" xmlns="http://www.w3.org/2000/svg">
<mask id="mask0_1754_18567" style="mask-type:alpha" maskUnits="userSpaceOnUse" x="0" y="0" width="24" height="24">
<rect width="24" height="24" fill="#D9D9D9"/>
</mask>
<g mask="url(#mask0_1754_18567)">
<path d="M7 18H9V16H11V14H9V12H7V14H5V16H7V18ZM13 14.5H19V13H13V14.5ZM13 17.5H17V16H13V17.5ZM4 22C3.45 22 2.97933 21.8043 2.588 21.413C2.196 21.021 2 20.55 2 20V9C2 8.45 2.196 7.979 2.588 7.587C2.97933 7.19567 3.45 7 4 7H9V4C9 3.45 9.196 2.979 9.588 2.587C9.97933 2.19567 10.45 2 11 2H13C13.55 2 14.021 2.19567 14.413 2.587C14.8043 2.979 15 3.45 15 4V7H20C20.55 7 21.021 7.19567 21.413 7.587C21.8043 7.979 22 8.45 22 9V20C22 20.55 21.8043 21.021 21.413 21.413C21.021 21.8043 20.55 22 20 22H4ZM11 9H13V4H11V9Z" fill="#76BC21"/>
</g>
</svg>
