<svg width="24" height="24" viewBox="0 0 24 24" fill="none" xmlns="http://www.w3.org/2000/svg">
<mask id="mask0_1759_3134" style="mask-type:alpha" maskUnits="userSpaceOnUse" x="0" y="0" width="24" height="24">
<rect width="24" height="24" fill="#D9D9D9"/>
</mask>
<g mask="url(#mask0_1759_3134)">
<path d="M3 5V3H15V5H3ZM7.5 17.5H10.5V15H13V12H10.5V9.5H7.5V12H5V15H7.5V17.5ZM4 21C3.45 21 2.97933 20.8043 2.588 20.413C2.196 20.021 2 19.55 2 19V8C2 7.45 2.196 6.97933 2.588 6.588C2.97933 6.196 3.45 6 4 6H14C14.55 6 15.021 6.196 15.413 6.588C15.8043 6.97933 16 7.45 16 8V19C16 19.55 15.8043 20.021 15.413 20.413C15.021 20.8043 14.55 21 14 21H4ZM19 13.75C18.4167 13.4667 17.9373 12.9957 17.562 12.337C17.1873 11.679 17 10.9 17 10C17 8.86667 17.2877 7.91667 17.863 7.15C18.4377 6.38333 19.15 6 20 6C20.85 6 21.5627 6.38333 22.138 7.15C22.7127 7.91667 23 8.86667 23 10C23 10.9 22.8127 11.679 22.438 12.337C22.0627 12.9957 21.5833 13.4667 21 13.75V20C21 20.2833 20.904 20.5207 20.712 20.712C20.5207 20.904 20.2833 21 20 21C19.7167 21 19.4793 20.904 19.288 20.712C19.096 20.5207 19 20.2833 19 20V13.75Z" fill="#76BC21"/>
</g>
</svg>
