<svg width="24" height="24" viewBox="0 0 24 24" fill="none" xmlns="http://www.w3.org/2000/svg">
<mask id="mask0_1759_3235" style="mask-type:alpha" maskUnits="userSpaceOnUse" x="0" y="0" width="24" height="24">
<rect width="24" height="24" fill="#D9D9D9"/>
</mask>
<g mask="url(#mask0_1759_3235)">
<path d="M4 21V9L12 3L20 9V21H4ZM7 18H8V16.5H16V18H17V14C17 13.45 16.8043 12.979 16.413 12.587C16.021 12.1957 15.55 12 15 12H11.5V15.5H8V11H7V18ZM9.75 15C10.1 15 10.3957 14.879 10.637 14.637C10.879 14.3957 11 14.1 11 13.75C11 13.4 10.879 13.1043 10.637 12.863C10.3957 12.621 10.1 12.5 9.75 12.5C9.4 12.5 9.10433 12.621 8.863 12.863C8.621 13.1043 8.5 13.4 8.5 13.75C8.5 14.1 8.621 14.3957 8.863 14.637C9.10433 14.879 9.4 15 9.75 15Z" fill="#76BC21"/>
</g>
</svg>
