<svg width="24" height="24" viewBox="0 0 24 24" fill="none" xmlns="http://www.w3.org/2000/svg">
<mask id="mask0_1759_3039" style="mask-type:alpha" maskUnits="userSpaceOnUse" x="0" y="0" width="24" height="24">
<rect width="24" height="24" fill="#D9D9D9"/>
</mask>
<g mask="url(#mask0_1759_3039)">
<path d="M8.4 11.6L10.5 9.5L8.375 7.375L7.325 8.425L8.4 9.475L7.325 10.55L8.4 11.6ZM21 9C20.45 9 19.979 8.804 19.587 8.412C19.1957 8.02067 19 7.55 19 7C19 6.55 19.125 6.07067 19.375 5.562C19.625 5.054 20.1667 4.2 21 3C21.8333 4.2 22.375 5.054 22.625 5.562C22.875 6.07067 23 6.55 23 7C23 7.55 22.8043 8.02067 22.413 8.412C22.021 8.804 21.55 9 21 9ZM15.625 11.625L16.7 10.55L15.625 9.475L16.675 8.425L15.625 7.375L13.5 9.5L15.625 11.625ZM12 13.5C11.5667 13.5 11.146 13.55 10.738 13.65C10.3293 13.75 9.94167 13.8917 9.575 14.075L6 12C6 11.7333 5.93333 11.4833 5.8 11.25C5.66667 11.0167 5.48333 10.8333 5.25 10.7C4.88333 10.5 4.50433 10.454 4.113 10.562C3.721 10.6707 3.41667 10.9 3.2 11.25C3 11.6167 2.954 11.9957 3.062 12.387C3.17067 12.779 3.4 13.0833 3.75 13.3C3.98333 13.4333 4.23333 13.5 4.5 13.5C4.76667 13.5 5.01667 13.4333 5.25 13.3L8.225 15.025C7.94167 15.3083 7.68767 15.6127 7.463 15.938C7.23767 16.2627 7.05 16.6167 6.9 17H8.55C8.9 16.4 9.375 15.9167 9.975 15.55C10.575 15.1833 11.25 15 12 15C12.75 15 13.425 15.1833 14.025 15.55C14.625 15.9167 15.1 16.4 15.45 17H17.1C16.7 15.9667 16.0457 15.125 15.137 14.475C14.229 13.825 13.1833 13.5 12 13.5ZM12 22C10.6 22 9.29167 21.7373 8.075 21.212C6.85833 20.6873 5.8 19.975 4.9 19.075C4 18.175 3.29167 17.1167 2.775 15.9C2.25833 14.6833 2 13.3833 2 12C2 10.6167 2.25833 9.31667 2.775 8.1C3.29167 6.88333 4 5.825 4.9 4.925C5.8 4.025 6.85833 3.31233 8.075 2.787C9.29167 2.26233 10.6 2 12 2C13.2333 2 14.396 2.2 15.488 2.6C16.5793 3 17.5583 3.56667 18.425 4.3C18.1917 4.73333 17.9793 5.16667 17.788 5.6C17.596 6.03333 17.5 6.5 17.5 7C17.5 7.98333 17.8417 8.81267 18.525 9.488C19.2083 10.1627 20.0333 10.5 21 10.5C21.15 10.5 21.3 10.4917 21.45 10.475C21.6 10.4583 21.7417 10.4333 21.875 10.4C21.9083 10.6667 21.9373 10.9293 21.962 11.188C21.9873 11.446 22 11.7167 22 12C22 13.3833 21.7373 14.6833 21.212 15.9C20.6873 17.1167 19.975 18.175 19.075 19.075C18.175 19.975 17.1167 20.6873 15.9 21.212C14.6833 21.7373 13.3833 22 12 22Z" fill="#76BC21"/>
</g>
</svg>
