<svg width="24" height="24" viewBox="0 0 24 24" fill="none" xmlns="http://www.w3.org/2000/svg">
<mask id="mask0_1759_3216" style="mask-type:alpha" maskUnits="userSpaceOnUse" x="0" y="0" width="24" height="24">
<rect width="24" height="24" fill="#D9D9D9"/>
</mask>
<g mask="url(#mask0_1759_3216)">
<path d="M8 22.5L6 21V17H5C4.45 17 3.979 16.8043 3.587 16.413C3.19567 16.021 3 15.55 3 15V7.5C2.71667 7.5 2.47933 7.40433 2.288 7.213C2.096 7.021 2 6.78333 2 6.5C2 6.21667 2.096 5.979 2.288 5.787C2.47933 5.59567 2.71667 5.5 3 5.5H6V4H5.5C5.21667 4 4.979 3.904 4.787 3.712C4.59567 3.52067 4.5 3.28333 4.5 3C4.5 2.71667 4.59567 2.479 4.787 2.287C4.979 2.09567 5.21667 2 5.5 2H8.5C8.78333 2 9.021 2.09567 9.213 2.287C9.40433 2.479 9.5 2.71667 9.5 3C9.5 3.28333 9.40433 3.52067 9.213 3.712C9.021 3.904 8.78333 4 8.5 4H8V5.5H11C11.2833 5.5 11.521 5.59567 11.713 5.787C11.9043 5.979 12 6.21667 12 6.5C12 6.78333 11.9043 7.021 11.713 7.213C11.521 7.40433 11.2833 7.5 11 7.5V15C11 15.55 10.8043 16.021 10.413 16.413C10.021 16.8043 9.55 17 9 17H8V22.5ZM5 15H9V13.5H7.25C7.05 13.5 6.875 13.425 6.725 13.275C6.575 13.125 6.5 12.95 6.5 12.75C6.5 12.55 6.575 12.375 6.725 12.225C6.875 12.075 7.05 12 7.25 12H9V10.5H7.25C7.05 10.5 6.875 10.425 6.725 10.275C6.575 10.125 6.5 9.95 6.5 9.75C6.5 9.55 6.575 9.375 6.725 9.225C6.875 9.075 7.05 9 7.25 9H9V7.5H5V15ZM15 22C14.45 22 13.9793 21.8043 13.588 21.413C13.196 21.021 13 20.55 13 20V13.5C13 13.0167 13.0833 12.6167 13.25 12.3C13.4167 11.9833 13.5917 11.7083 13.775 11.475C13.9583 11.2417 14.125 11.054 14.275 10.912C14.425 10.7707 14.5 10.6333 14.5 10.5V10C14.2167 10 13.9793 9.904 13.788 9.712C13.596 9.52067 13.5 9.28333 13.5 9C13.5 8.71667 13.596 8.479 13.788 8.287C13.9793 8.09567 14.2167 8 14.5 8H19.5C19.7833 8 20.0207 8.09567 20.212 8.287C20.404 8.479 20.5 8.71667 20.5 9C20.5 9.28333 20.404 9.52067 20.212 9.712C20.0207 9.904 19.7833 10 19.5 10V10.5C19.5 10.6333 19.5833 10.7833 19.75 10.95C19.9167 11.1167 20.1 11.3167 20.3 11.55C20.4833 11.7833 20.646 12.0583 20.788 12.375C20.9293 12.6917 21 13.0667 21 13.5V20C21 20.55 20.8043 21.021 20.413 21.413C20.021 21.8043 19.55 22 19 22H15ZM15 14H19V13.5C19 13.25 18.925 13.0333 18.775 12.85C18.625 12.6667 18.4583 12.4667 18.275 12.25C18.0917 12.0333 17.9167 11.7917 17.75 11.525C17.5833 11.2583 17.5 10.9167 17.5 10.5V10H16.5V10.5C16.5 10.9 16.421 11.2333 16.263 11.5C16.1043 11.7667 15.9333 12.0083 15.75 12.225C15.5667 12.4417 15.396 12.6457 15.238 12.837C15.0793 13.029 15 13.25 15 13.5V14ZM15 20H19V18.5H15V20Z" fill="#76BC21"/>
</g>
</svg>
