<svg width="33" height="32" viewBox="0 0 33 32" fill="none" xmlns="http://www.w3.org/2000/svg">
<g clip-path="url(#clip0_1766_11482)">
<path d="M30.7842 16C30.7842 13.7118 30.2426 11.456 29.2038 9.41714C28.1649 7.3783 26.6583 5.61426 24.8071 4.26926" stroke="white" stroke-width="3" stroke-linecap="round"/>
</g>
<g clip-path="url(#clip1_1766_11482)">
<path d="M30.7842 16C30.7842 13.7118 30.2426 11.456 29.2038 9.41714C28.1649 7.3783 26.6583 5.61426 24.8071 4.26926" stroke="white" stroke-width="3" stroke-linecap="round"/>
</g>
<g clip-path="url(#clip2_1766_11482)">
<path d="M30.7842 16C30.7842 13.7118 30.2426 11.456 29.2038 9.41714C28.1649 7.3783 26.6583 5.61426 24.8071 4.26926" stroke="white" stroke-width="3" stroke-linecap="round"/>
</g>
<g clip-path="url(#clip3_1766_11482)">
<path d="M30.7842 16C30.7842 13.7118 30.2426 11.456 29.2038 9.41714C28.1649 7.3783 26.6583 5.61426 24.8071 4.26926" stroke="white" stroke-width="3" stroke-linecap="round"/>
</g>
<g clip-path="url(#clip4_1766_11482)">
<path d="M30.7842 16C30.7842 13.7118 30.2426 11.456 29.2038 9.41714C28.1649 7.3783 26.6583 5.61426 24.8071 4.26926" stroke="white" stroke-width="3" stroke-linecap="round"/>
</g>
<defs>
<clipPath id="clip0_1766_11482">
<rect width="32" height="32" fill="white" transform="translate(0.28418)"/>
</clipPath>
<clipPath id="clip1_1766_11482">
<rect width="32" height="32" fill="white" transform="translate(0.28418)"/>
</clipPath>
<clipPath id="clip2_1766_11482">
<rect width="32" height="32" fill="white" transform="translate(0.28418)"/>
</clipPath>
<clipPath id="clip3_1766_11482">
<rect width="32" height="32" fill="white" transform="translate(0.28418)"/>
</clipPath>
<clipPath id="clip4_1766_11482">
<rect width="32" height="32" fill="white" transform="translate(0.28418)"/>
</clipPath>
</defs>
</svg>
